<svg class="svg-icon" style="width: 1em;height: 1em;vertical-align: middle;fill: currentColor;overflow: hidden;" viewBox="0 0 1024 1024" version="1.1" xmlns="http://www.w3.org/2000/svg"><path d="M200.455758 167.346424a31.030303 31.030303 0 0 1 27.74109-17.159757h558.545455a31.030303 31.030303 0 0 1 27.741091 17.159757l62.060606 124.121212a31.030303 31.030303 0 0 1 3.289212 13.870546v527.515151a62.060606 62.060606 0 0 1-62.060606 62.060606h-620.606061a62.060606 62.060606 0 0 1-62.060606-62.060606v-527.515151a31.030303 31.030303 0 0 1 3.289213-13.870546l62.060606-124.121212zM247.373576 212.247273l-50.207031 100.41406V832.853333h620.606061V312.661333L767.565576 212.247273H247.373576z" fill="#303133" /><path d="M353.869576 586.162424a31.030303 31.030303 0 0 1 43.876848 0l109.723152 109.723152 109.723151-109.723152a31.030303 31.030303 0 0 1 43.876849 43.907879l-131.661576 131.630545a31.030303 31.030303 0 0 1-43.876848 0l-131.661576-131.630545a31.030303 31.030303 0 0 1 0-43.907879z" fill="#303133" /><path d="M507.469576 398.429091a31.030303 31.030303 0 0 1 31.030303 31.030303v310.30303a31.030303 31.030303 0 1 1-62.060606 0v-310.30303a31.030303 31.030303 0 0 1 31.030303-31.030303zM135.105939 305.338182a31.030303 31.030303 0 0 1 31.030303-31.030303h682.666667a31.030303 31.030303 0 1 1 0 62.060606h-682.666667a31.030303 31.030303 0 0 1-31.030303-31.030303z" fill="#303133" /></svg>